<svg width="28" height="28" viewBox="0 0 28 28" fill="none" xmlns="http://www.w3.org/2000/svg">
<g clip-path="url(#clip0_318_4276)">
<path d="M7.6607 4.66602L22.8932 6.81649L23.0339 6.83627C23.7835 6.94159 24.3618 7.02283 24.8405 7.22958C26.1433 7.79219 27.031 9.02588 27.1505 10.4399C27.1944 10.9596 27.0876 11.5337 26.9493 12.2779L26.9234 12.4176L26.899 12.5491C26.7235 13.4991 26.6031 14.1503 26.3588 14.7076C25.695 16.2219 24.3568 17.335 22.747 17.7119C22.1546 17.8506 21.4922 17.8505 20.5261 17.8502L20.3924 17.8501H9.88042L7.60559 17.0235L5.73047 5.77276L7.6607 4.66602Z" fill="#D4D4D4"/>
<path fill-rule="evenodd" clip-rule="evenodd" d="M4.16887 3.86673C4.06661 3.85251 3.93481 3.85003 3.46098 3.85003H1.39961C0.81971 3.85003 0.349609 3.37994 0.349609 2.80003C0.349609 2.22013 0.81971 1.75003 1.39961 1.75003H3.46098C3.48407 1.75003 3.50683 1.75003 3.5293 1.75001C3.90282 1.74989 4.19248 1.74979 4.45832 1.78678C5.93287 1.99198 7.15696 3.02894 7.60178 4.44969C7.62355 4.51923 7.64291 4.59094 7.6608 4.66591L22.8932 6.81638C22.9408 6.82308 22.9877 6.82968 23.0339 6.83616C23.7835 6.94148 24.3619 7.02272 24.8407 7.22947C26.1434 7.79209 27.0311 9.02577 27.1505 10.4398C27.1945 10.9595 27.0878 11.5336 26.9495 12.2778C26.9409 12.3237 26.9322 12.3703 26.9234 12.4175C26.9153 12.4619 26.9072 12.5058 26.8992 12.549C26.7235 13.499 26.6031 14.1502 26.3588 14.7076C25.6952 16.2218 24.3569 17.3349 22.7471 17.7118C22.1546 17.8506 21.4924 17.8503 20.5263 17.85C20.4823 17.85 20.4378 17.85 20.3926 17.85H9.88051C9.93521 18.1384 9.98755 18.38 10.0445 18.5902C10.1626 19.0261 10.2762 19.2261 10.3938 19.3592C10.5053 19.4852 10.6344 19.5945 10.7771 19.6839C10.9277 19.7779 11.1436 19.8572 11.593 19.902C12.0622 19.9489 12.6733 19.95 13.5909 19.95H24.2662C24.8461 19.95 25.3162 20.4201 25.3162 21C25.3162 21.5799 24.8461 22.05 24.2662 22.05H13.5395C12.6868 22.05 11.9703 22.0501 11.3844 21.9916C10.7671 21.93 10.1942 21.7962 9.66366 21.4644C9.34975 21.2681 9.06579 21.0276 8.82056 20.7501C8.40611 20.2814 8.17989 19.7383 8.01761 19.1395C7.86362 18.5713 7.74584 17.8644 7.60568 17.0233L5.73057 5.77265C5.65267 5.30527 5.62856 5.17567 5.59771 5.07714C5.39552 4.43135 4.83912 3.96001 4.16887 3.86673ZM9.52242 15.75H20.3926C21.5436 15.75 21.9432 15.7433 22.2684 15.6671C23.2343 15.441 24.0373 14.7731 24.4355 13.8645C24.5695 13.5587 24.649 13.167 24.8586 12.0351C25.0347 11.0843 25.0749 10.8155 25.0581 10.6166C25.0037 9.97388 24.6003 9.41313 24.0081 9.15739C23.8248 9.07827 23.5573 9.03092 22.5997 8.89575L8.0374 6.8399L9.52242 15.75Z" fill="#2F2F2F"/>
<path d="M25.2 25.9008C25.2 27.0605 24.2598 28.0008 23.1 28.0008C21.9402 28.0008 21 27.0605 21 25.9008C21 24.741 21.9402 23.8008 23.1 23.8008C24.2598 23.8008 25.2 24.741 25.2 25.9008Z" fill="#2F2F2F"/>
<path d="M12.5994 25.9008C12.5994 27.0605 11.6592 28.0008 10.4994 28.0008C9.33961 28.0008 8.39941 27.0605 8.39941 25.9008C8.39941 24.741 9.33961 23.8008 10.4994 23.8008C11.6592 23.8008 12.5994 24.741 12.5994 25.9008Z" fill="#2F2F2F"/>
</g>
<defs>
<clipPath id="clip0_318_4276">
<rect width="28" height="28" fill="white"/>
</clipPath>
</defs>
</svg>
