<svg width="31" height="33" viewBox="0 0 31 33" fill="none" xmlns="http://www.w3.org/2000/svg">
<path d="M20.9688 0.1875C19.4316 0.187148 17.9157 0.546869 16.5426 1.23784C15.1695 1.92881 13.9773 2.93181 13.0617 4.16647C12.146 5.40113 11.5322 6.83312 11.2696 8.34768C11.007 9.86224 11.1028 11.4173 11.5494 12.8881L0.1875 24.25V30.8125H6.75L18.1119 19.4506C19.4658 19.8616 20.8925 19.9759 22.2946 19.7856C23.6967 19.5954 25.0413 19.1051 26.2368 18.3482C27.4323 17.5913 28.4505 16.5855 29.2222 15.3995C29.9938 14.2135 30.5007 12.875 30.7083 11.4754C30.9159 10.0757 30.8193 8.64777 30.4251 7.28883C30.0309 5.92989 29.3483 4.67191 28.424 3.60061C27.4996 2.52932 26.3552 1.66988 25.0686 1.08089C23.7821 0.49189 22.3837 0.187172 20.9688 0.1875ZM20.9688 17.6875C20.2157 17.6871 19.4669 17.5758 18.7463 17.3572L17.4917 16.9766L16.5653 17.903L13.0861 21.3822L11.5778 19.875L10.0312 21.4216L11.5395 22.9298L9.80484 24.6645L8.29656 23.1562L6.75 24.7028L8.25828 26.2111L5.84438 28.625H2.375V25.1556L13.0959 14.4347L14.0234 13.5083L13.6428 12.2537C13.1753 10.7126 13.2057 9.06337 13.7296 7.54053C14.2535 6.01768 15.2443 4.69881 16.561 3.77153C17.8777 2.84425 19.4532 2.35577 21.0636 2.37558C22.6739 2.39539 24.237 2.92248 25.5305 3.88188C26.8239 4.84128 27.782 6.18412 28.2683 7.71939C28.7545 9.25467 28.7443 10.9042 28.2391 12.4333C27.7338 13.9625 26.7592 15.2933 25.4539 16.2366C24.1487 17.1799 22.5792 17.6876 20.9688 17.6875Z" fill="#4C4C4C"/>
<path d="M22.0625 11.125C23.2706 11.125 24.25 10.1456 24.25 8.9375C24.25 7.72938 23.2706 6.75 22.0625 6.75C20.8544 6.75 19.875 7.72938 19.875 8.9375C19.875 10.1456 20.8544 11.125 22.0625 11.125Z" fill="#4C4C4C"/>
</svg>
