<svg width="14" height="15" viewBox="0 0 14 15" fill="none" xmlns="http://www.w3.org/2000/svg">
<path d="M11.6196 4.97877C11.633 4.8771 11.64 4.77544 11.64 4.67435C11.64 3.28431 10.3928 2.16889 9.00877 2.35762C8.60544 1.63718 7.8372 1.16858 6.98399 1.16858C6.13078 1.16858 5.36254 1.63718 4.95922 2.35762C3.57231 2.16889 2.328 3.28431 2.328 4.67435C2.328 4.77544 2.33498 4.8771 2.34837 4.97877C1.63076 5.38427 1.164 6.15554 1.164 7.01154C1.164 7.86753 1.63076 8.6388 2.34837 9.0443C2.33494 9.14522 2.32814 9.24691 2.328 9.34872C2.328 10.7388 3.57231 11.8513 4.95922 11.6655C5.36254 12.3859 6.13078 12.8545 6.98399 12.8545C7.8372 12.8545 8.60544 12.3859 9.00877 11.6655C10.3928 11.8513 11.64 10.7388 11.64 9.34872C11.64 9.24764 11.633 9.14597 11.6196 9.0443C12.3372 8.6388 12.804 7.86753 12.804 7.01154C12.804 6.15554 12.3372 5.38427 11.6196 4.97877ZM6.3758 9.59179L4.24161 7.42171L5.07038 6.60136L6.38395 7.93706L8.90226 5.4281L9.72172 6.2578L6.3758 9.59179Z" fill="#CAE4B4"/>
</svg>
